<svg id="Love" xmlns="http://www.w3.org/2000/svg" width="178" height="178" viewBox="0 0 178 178">
  <metadata><?xpacket begin="﻿" id="W5M0MpCehiHzreSzNTczkc9d"?>
<x:xmpmeta xmlns:x="adobe:ns:meta/" x:xmptk="Adobe XMP Core 5.6-c138 79.159824, 2016/09/14-01:09:01        ">
   <rdf:RDF xmlns:rdf="http://www.w3.org/1999/02/22-rdf-syntax-ns#">
      <rdf:Description rdf:about=""/>
   </rdf:RDF>
</x:xmpmeta>
                                                                                                    
                                                                                                    
                                                                                                    
                                                                                                    
                                                                                                    
                                                                                                    
                                                                                                    
                                                                                                    
                                                                                                    
                                                                                                    
                                                                                                    
                                                                                                    
                                                                                                    
                                                                                                    
                                                                                                    
                                                                                                    
                                                                                                    
                                                                                                    
                                                                                                    
                                                                                                    
                           
<?xpacket end="w"?></metadata>
<defs>
    <style>
      .cls-1 {
        fill: none;
        stroke: #fff;
        stroke-width: 6px;
      }

      .cls-2 {
        fill: #fff;
        fill-rule: evenodd;
      }
    </style>
  </defs>
  <circle class="cls-1" cx="89" cy="89" r="86"/>
  <path id="CLOUD_UPLOAD" data-name="CLOUD / UPLOAD" class="cls-2" d="M1395,3630a3,3,0,0,1,0-6,8.991,8.991,0,0,0,5.96-15.73c-0.19-.17-0.39-0.33-0.59-0.48a0.138,0.138,0,0,1-.04-0.03c-0.2-.15-0.4-0.28-0.6-0.41a0.879,0.879,0,0,1-.1-0.06c-0.19-.11-0.39-0.22-0.59-0.32a0.886,0.886,0,0,0-.17-0.08,5.616,5.616,0,0,0-.56-0.25,1.841,1.841,0,0,0-.25-0.09,4.557,4.557,0,0,0-.52-0.18c-0.11-.03-0.23-0.06-0.35-0.09-0.15-.04-0.3-0.08-0.46-0.11s-0.33-.05-0.49-0.07l-0.36-.06c-0.29-.02-0.58-0.04-0.88-0.04-0.09,0-.18.01-0.28,0.01-0.09-.51-0.2-1.01-0.34-1.51-0.03-.12-0.08-0.23-0.11-0.35-0.12-.38-0.23-0.75-0.37-1.12-0.04-.11-0.09-0.21-0.13-0.32-0.15-.37-0.3-0.74-0.48-1.09-0.04-.09-0.09-0.17-0.13-0.26-0.19-.37-0.38-0.74-0.6-1.09a16.952,16.952,0,0,0-29.12,0c-0.22.35-.41,0.72-0.6,1.09-0.04.09-.09,0.17-0.13,0.26-0.18.35-.33,0.72-0.48,1.09-0.04.11-.09,0.21-0.13,0.32-0.14.37-.25,0.74-0.37,1.12-0.03.12-.08,0.23-0.11,0.35-0.14.5-.25,1-0.34,1.51-0.1,0-.19-0.01-0.28-0.01-0.3,0-.59.02-0.88,0.04l-0.36.06c-0.16.02-.33,0.04-0.49,0.07s-0.31.07-.46,0.11c-0.12.03-.24,0.06-0.35,0.09a4.557,4.557,0,0,0-.52.18,1.841,1.841,0,0,0-.25.09,5.616,5.616,0,0,0-.56.25,0.886,0.886,0,0,0-.17.08c-0.2.1-.4,0.21-0.59,0.32a0.879,0.879,0,0,1-.1.06c-0.2.13-.4,0.26-0.6,0.41a0.138,0.138,0,0,1-.04.03c-0.2.15-.4,0.31-0.59,0.48A8.991,8.991,0,0,0,1361,3624a3,3,0,0,1,0,6,15,15,0,0,1-4.39-29.34,22.935,22.935,0,0,1,42.78,0A15,15,0,0,1,1395,3630Zm-28.23-7.01h0.01v-0.01l8.99-9.99,0.01,0.01a2.964,2.964,0,0,1,4.44,0l0.01-.01,8.99,9.99h0l0.01,0.01h0a3.043,3.043,0,0,1,.76,1.72v0.01a2.528,2.528,0,0,1,.01.28h0a3,3,0,0,1-3,3h-0.16a0.127,0.127,0,0,0-.06-0.01,0.34,0.34,0,0,1-.1-0.01h-0.03c-0.05-.01-0.09-0.01-0.14-0.02h0a3.035,3.035,0,0,1-1.74-.95h0l-3.77-4.19V3638a3,3,0,0,1-6,0v-15.18l-3.77,4.19h0a3,3,0,0,1-1.74.95h0c-0.05.01-.09,0.01-0.13,0.02h-0.04a0.34,0.34,0,0,1-.1.01,0.127,0.127,0,0,0-.06.01H1369a3,3,0,0,1-2.23-5.01h0Z" transform="translate(-1289 -3524)"/>
</svg>
