<svg id="Love" xmlns="http://www.w3.org/2000/svg" width="178" height="178" viewBox="0 0 178 178">
  <metadata><?xpacket begin="﻿" id="W5M0MpCehiHzreSzNTczkc9d"?>
<x:xmpmeta xmlns:x="adobe:ns:meta/" x:xmptk="Adobe XMP Core 5.6-c138 79.159824, 2016/09/14-01:09:01        ">
   <rdf:RDF xmlns:rdf="http://www.w3.org/1999/02/22-rdf-syntax-ns#">
      <rdf:Description rdf:about=""/>
   </rdf:RDF>
</x:xmpmeta>
                                                                                                    
                                                                                                    
                                                                                                    
                                                                                                    
                                                                                                    
                                                                                                    
                                                                                                    
                                                                                                    
                                                                                                    
                                                                                                    
                                                                                                    
                                                                                                    
                                                                                                    
                                                                                                    
                                                                                                    
                                                                                                    
                                                                                                    
                                                                                                    
                                                                                                    
                                                                                                    
                           
<?xpacket end="w"?></metadata>
<defs>
    <style>
      .cls-1 {
        fill: none;
        stroke: #fff;
        stroke-width: 6px;
      }

      .cls-2 {
        fill: #fff;
        fill-rule: evenodd;
      }
    </style>
  </defs>
  <circle class="cls-1" cx="89" cy="89" r="86"/>
  <path id="LINE_GRAPH" data-name="LINE GRAPH" class="cls-2" d="M575.708,3604.47l-0.03.02h0l-25.969,17.98,0-.01a2.966,2.966,0,0,1-3.369.03v0.01l-0.011-.01h0l-13.421-8.95-13.9,8.18V3634h55a3,3,0,0,1,0,6H516a3,3,0,0,1-3-3v-48a3,3,0,0,1,6,0v25.76l12.479-7.35,0.006,0.01A3,3,0,0,1,533,3607a3.049,3.049,0,0,1,1.664.5h0l0.011,0.01h0l13.289,8.86,24.324-16.84,0,0.01A2.958,2.958,0,0,1,574,3599a2.995,2.995,0,0,1,1.706,5.46Z" transform="translate(-456 -3524)"/>
</svg>
